# xmcd CD database file
#
# Track frame offsets:
#	150
#	16367
#	31210
#	42760
#	55842
#	71040
#	88560
#	102302
#	113515
#	128697
#	141357
#
# Disc length: 2281 seconds
#
# Revision: 1
# Processed by: cddbd v1.5.2PL0 Copyright (c) Steve Scherf et al.
# Submitted via: CDex 1.51
#
DISCID=8c08e70b
DTITLE=Felix Cavaliere - Felix Cavaliere
DYEAR=1974
DGENRE=Rock
TTITLE0=A High Price To Pay
TTITLE1=I'm A Gamblin Man
TTITLE2=I've Got A Solution
TTITLE3=Everlasting Love
TTITLE4=Summer In El Barrio
TTITLE5=Long Times Gone
TTITLE6=Future Train
TTITLE7=Mountain Man
TTITLE8=Funky Friday
TTITLE9=Been A Long Time
TTITLE10=I Am Free
EXTD=YEAR: 1974
EXTT0=
EXTT1=
EXTT2=
EXTT3=
EXTT4=
EXTT5=
EXTT6=
EXTT7=
EXTT8=
EXTT9=
EXTT10=
PLAYORDER=
